# xmcd
#
# Track frame offsets:
#	150
#	29012
#	49937
#	69275
#	74995
#	79525
#	88350
#	109687
#	148362
#	156712
#	178555
#	215875
#	228762
#	247900
#	277812
#
# Disc length: 4265 seconds
#
# Revision: 1
# Processed by: cddbd v1.5PL3 Copyright (c) Steve Scherf et al.
# Submitted via: EasyCDDAExtractor 5.0.6
#
DISCID=e510a70f
DTITLE=Dobri Hristov - Liturgy Of St.John Chrysostom
DYEAR=1990
DGENRE=
TTITLE0=The Great Litany
TTITLE1=Troparion Sung At The Consecration Of A Church
TTITLE2=Glory,Both Now And Ever
TTITLE3=Troparion Of Sts.Cyril And Methodius
TTITLE4=O Come,Let Us Worship
TTITLE5=Troparion Of St.Alexander Nevsky
TTITLE6=None
TTITLE7=Cherubic Hymn #2
TTITLE8=The FAther And The Son
TTITLE9=I Believe
TTITLE10=A Mercy Of Peace
TTITLE11=Meet It Is
TTITLE12=Uor Father
TTITLE13=Praise The Lord
TTITLE14=the Dismissal
EXTD=
EXTT0=
EXTT1=
EXTT2=
EXTT3=
EXTT4=
EXTT5=
EXTT6=
EXTT7=
EXTT8=
EXTT9=
EXTT10=
EXTT11=
EXTT12=
EXTT13=
EXTT14=
PLAYORDER=
